<svg xmlns="http://www.w3.org/2000/svg" xmlns:xlink="http://www.w3.org/1999/xlink" id="Layer_1" x="0px" y="0px" viewBox="0 0 1024 1024" style="enable-background:new 0 0 1024 1024;" xml:space="preserve">
<style type="text/css">
	.st0{fill:#212E4D;}
	.st1{fill:none;}
	.st2{fill:url(#XMLID_24_);}
	.st3{fill:#5197D1;}
	.st4{fill:#FFFFFF;}
</style>
<g id="XMLID_4_">
	<circle id="XMLID_6_" class="st0" cx="512" cy="512" r="512"></circle>
	<g id="XMLID_3_">
		<line id="XMLID_23_" class="st1" x1="546.4" y1="218.9" x2="541.3" y2="204.8"></line>
		<linearGradient id="XMLID_24_" gradientUnits="userSpaceOnUse" x1="512.325" y1="660.67" x2="512.325" y2="103.1">
			<stop offset="0" style="stop-color:#4B8AC9"></stop>
			<stop offset="1" style="stop-color:#57BBEB"></stop>
		</linearGradient>
		<path id="XMLID_13_" class="st2" d="M801.3,660.7L699,624.3L546.4,218.4c-0.5-5-2.3-9.6-5.1-13.6v0c-6.2-8.7-17.1-14.5-29.6-14.5    c-11.5,0-21.6,4.9-28,12.4c-0.1,0.1-0.2,0.3-0.3,0.4c-3.9,4.8-6.3,10.6-6.5,16.9l-154.4,404l-99.1,35.3l170-465.7l11.3-31    c18.8-33.5,56-56.9,99.5-59.3c2.5-0.2,4.9-0.2,7.5-0.2c2.8,0,5.5,0.1,8.3,0.3c0.5,0,1,0.1,1.5,0.1c44.8,3.3,82.6,28.9,100,64.6    l7.3,19.9L801.3,660.7z"></path>
		<circle id="XMLID_2_" class="st3" cx="514.4" cy="479.9" r="74.6"></circle>
	</g>
	<g id="XMLID_1_">
		<path id="XMLID_7_" class="st4" d="M310.6,805.6h-45.8l-6.2,20.5h-30.8l41.9-130.2h35.9l41.9,130.2h-30.8L310.6,805.6z     M302.1,777.7l-14.4-47.8l-14.4,47.8H302.1z"></path>
		<path id="XMLID_10_" class="st4" d="M387.2,759.9v32.9c0,8,6.5,8.7,18.1,8v25.3c-34.5,3.7-44.6-7.3-44.6-33.3v-32.9h-14.1v-26.8    h14.1v-17.7l26.4-8.4v26h18.1v26.8H387.2z"></path>
		<path id="XMLID_12_" class="st4" d="M414.2,779.6c0-27.7,20.8-49.1,46.7-49.1s46.7,21.4,46.7,49.1s-20.8,49.1-46.7,49.1    S414.2,807.3,414.2,779.6z M481.1,779.6c0-13.2-8.8-21.9-20.3-21.9s-20.3,8.7-20.3,21.9s8.8,21.9,20.3,21.9    S481.1,792.8,481.1,779.6z"></path>
		<path id="XMLID_16_" class="st4" d="M654.7,769v57.1h-26.4v-54.7c0-9.3-4.2-15.3-12.7-15.3c-8.8,0-13.7,6.5-13.7,17.5v52.5h-26.4    v-54.7c0-9.3-4.2-15.3-12.7-15.3c-8.8,0-13.7,6.5-13.7,17.5v52.5h-26.4v-93H549v8.6c4.1-6.3,11.8-11.2,23.6-11.2    c10.4,0,18.1,4.5,23.1,12.3c4.9-7.4,13-12.3,25.5-12.3C641.5,730.5,654.7,745.7,654.7,769z"></path>
		<path id="XMLID_18_" class="st4" d="M670.2,708.1c0-9.1,7.2-16.7,15.9-16.7s15.9,7.6,15.9,16.7s-7.2,16.7-15.9,16.7    S670.2,717.3,670.2,708.1z M672.8,733.1h26.4v93h-26.4V733.1z"></path>
		<path id="XMLID_21_" class="st4" d="M714.2,779.6c0-27.7,19.9-49.1,46.7-49.1c17.1,0,32.2,9.5,39.8,23.8l-23.1,14.1    c-3-6.5-9.3-10.4-17.1-10.4c-11.5,0-19.9,8.7-19.9,21.6c0,12.8,8.5,21.6,19.9,21.6c7.8,0,14.3-3.9,17.1-10.4l23.1,14    c-7.6,14.5-22.6,24-39.8,24C734.1,828.7,714.2,807.3,714.2,779.6z"></path>
	</g>
</g>
</svg>