<svg xmlns="http://www.w3.org/2000/svg" xmlns:xlink="http://www.w3.org/1999/xlink" id="Layer_1" x="0px" y="0px" viewBox="-505 -91.1 1024 1024" style="enable-background:new -505 -91.1 1024 1024;" xml:space="preserve">
<style type="text/css">
	.st0{fill:#D8D8D8;}
	.st1{fill:#AAABAB;}
	.st2{fill:#FFFFFF;}
	.st3{fill:url(#XMLID_4_);}
	.st4{fill:url(#XMLID_11_);}
	.st5{fill:url(#XMLID_12_);}
	.st6{fill:url(#XMLID_13_);}
	.st7{fill:url(#XMLID_14_);}
	.st8{fill:url(#XMLID_15_);}
	.st9{fill:url(#XMLID_16_);}
	.st10{fill:url(#XMLID_17_);}
	.st11{fill:url(#XMLID_18_);}
	.st12{fill:url(#XMLID_19_);}
	.st13{fill:url(#XMLID_20_);}
	.st14{fill:url(#XMLID_21_);}
	.st15{fill:url(#XMLID_22_);}
	.st16{fill:url(#XMLID_23_);}
	.st17{fill:url(#XMLID_26_);}
	.st18{fill:#F7931E;}
	.st19{fill:#CD2027;}
	.st20{fill:#6FBF53;}
	.st21{fill:#F6BF17;}
	.st22{fill:#1CB899;}
	.st23{fill:#EF509D;}
	.st24{fill:#A380BA;}
	.st25{fill:#476FB6;}
	.st26{fill:#16BDF0;}
</style>
<g id="XMLID_1_">
	<circle id="XMLID_10_" class="st0" cx="7" cy="420.9" r="507"></circle>
	<circle id="XMLID_9_" class="st1" cx="7" cy="420.9" r="470.5"></circle>
	<circle id="XMLID_8_" class="st2" cx="7" cy="420.9" r="451.5"></circle>
	
		<linearGradient id="XMLID_4_" gradientUnits="userSpaceOnUse" x1="-223.6019" y1="701.4335" x2="-43.5273" y2="701.4335" gradientTransform="matrix(1 0 0 -1 0 841.67)">
		<stop offset="0" style="stop-color:#CD2027"></stop>
		<stop offset="1" style="stop-color:#6FBF53"></stop>
	</linearGradient>
	<polygon id="XMLID_44_" class="st3" points="-217.5,181.4 -223.6,166 -49.3,99.1 -43.3,114.5  "></polygon>
	
		<linearGradient id="XMLID_11_" gradientUnits="userSpaceOnUse" x1="-21.3693" y1="672.051" x2="276.1031" y2="672.051" gradientTransform="matrix(1 0 0 -1 0 841.67)">
		<stop offset="0" style="stop-color:#6FBF53"></stop>
		<stop offset="1" style="stop-color:#F6BF17"></stop>
	</linearGradient>
	<polygon id="XMLID_45_" class="st4" points="269.6,243 -21.4,111.3 -14.5,96.3 276.1,228  "></polygon>
	
		<linearGradient id="XMLID_12_" gradientUnits="userSpaceOnUse" x1="254.931" y1="415.8094" x2="273.8436" y2="506.3209" gradientTransform="matrix(1 0 0 -1 0 841.67)">
		<stop offset="0" style="stop-color:#1CB899"></stop>
		<stop offset="1" style="stop-color:#F6BF17"></stop>
	</linearGradient>
	<polygon id="XMLID_46_" class="st5" points="270.8,416 254.6,413.6 272.9,273.8 289.1,276.2  "></polygon>
	
		<linearGradient id="XMLID_13_" gradientUnits="userSpaceOnUse" x1="257.9444" y1="367.6675" x2="279.5593" y2="278.5069" gradientTransform="matrix(1 0 0 -1 0 841.67)">
		<stop offset="0" style="stop-color:#1CB899"></stop>
		<stop offset="1" style="stop-color:#EF509D"></stop>
	</linearGradient>
	<polygon id="XMLID_47_" class="st6" points="278.9,614.6 254.6,476 270.8,473.2 295.2,612.2  "></polygon>
	
		<linearGradient id="XMLID_14_" gradientUnits="userSpaceOnUse" x1="104.2662" y1="203.5522" x2="272.2578" y2="203.5522" gradientTransform="matrix(1 0 0 -1 0 841.67)">
		<stop offset="0" style="stop-color:#A380BA"></stop>
		<stop offset="1" style="stop-color:#EF509D"></stop>
	</linearGradient>
	<polygon id="XMLID_48_" class="st7" points="107.1,660.8 104.3,645 269.6,615.4 272.5,631.6  "></polygon>
	
		<linearGradient id="XMLID_15_" gradientUnits="userSpaceOnUse" x1="-68.3813" y1="152.2848" x2="83.3932" y2="152.2848" gradientTransform="matrix(1 0 0 -1 0 841.67)">
		<stop offset="0" style="stop-color:#16BDF0"></stop>
		<stop offset="1" style="stop-color:#A380BA"></stop>
	</linearGradient>
	<polygon id="XMLID_49_" class="st8" points="-62.7,725.3 -68.4,710.3 77.5,653.5 83.2,668.5  "></polygon>
	
		<linearGradient id="XMLID_16_" gradientUnits="userSpaceOnUse" x1="-223.6019" y1="226.045" x2="-82.0464" y2="226.045" gradientTransform="matrix(1 0 0 -1 0 841.67)">
		<stop offset="0" style="stop-color:#F7931E"></stop>
		<stop offset="1" style="stop-color:#16BDF0"></stop>
	</linearGradient>
	<polygon id="XMLID_50_" class="st9" points="-95.9,728.5 -223.6,511.3 -209.4,502.8 -81.8,720.4  "></polygon>
	
		<linearGradient id="XMLID_17_" gradientUnits="userSpaceOnUse" x1="-198.0695" y1="276.2992" x2="90.4868" y2="276.2992" gradientTransform="matrix(1 0 0 -1 0 841.67)">
		<stop offset="0" style="stop-color:#F7931E"></stop>
		<stop offset="1" style="stop-color:#A380BA"></stop>
	</linearGradient>
	<polygon id="XMLID_51_" class="st10" points="82.4,651.9 -198.1,492.6 -190.4,478.8 90.5,637.7  "></polygon>
	
		<linearGradient id="XMLID_18_" gradientUnits="userSpaceOnUse" x1="77.8074" y1="396.5181" x2="91.992" y2="272.909" gradientTransform="matrix(1 0 0 -1 0 841.67)">
		<stop offset="0" style="stop-color:#476FB6"></stop>
		<stop offset="1" style="stop-color:#A380BA"></stop>
	</linearGradient>
	<polygon id="XMLID_52_" class="st11" points="90.5,638.5 74.3,474.4 90.5,472.8 106.7,636.9  "></polygon>
	
		<linearGradient id="XMLID_19_" gradientUnits="userSpaceOnUse" x1="-177.8058" y1="386.3316" x2="68.6019" y2="386.3316" gradientTransform="matrix(1 0 0 -1 0 841.67)">
		<stop offset="0" style="stop-color:#F7931E"></stop>
		<stop offset="1" style="stop-color:#476FB6"></stop>
	</linearGradient>
	<rect id="XMLID_53_" x="-177.8" y="447.2" class="st12" width="246.4" height="16.2"></rect>
	
		<linearGradient id="XMLID_20_" gradientUnits="userSpaceOnUse" x1="98.187" y1="391.8028" x2="223.8225" y2="391.8028" gradientTransform="matrix(1 0 0 -1 0 841.67)">
		<stop offset="0" style="stop-color:#476FB6"></stop>
		<stop offset="1" style="stop-color:#1CB899"></stop>
	</linearGradient>
	<polygon id="XMLID_54_" class="st13" points="99,461.4 98.2,445.2 222.6,438.3 223.8,454.1  "></polygon>
	
		<linearGradient id="XMLID_21_" gradientUnits="userSpaceOnUse" x1="-36.7698" y1="479.1397" x2="79.1391" y2="479.1397" gradientTransform="matrix(1 0 0 -1 0 841.67)">
		<stop offset="0" style="stop-color:#AAABAB"></stop>
		<stop offset="1" style="stop-color:#476FB6"></stop>
	</linearGradient>
	<polygon id="XMLID_55_" class="st14" points="65.4,446.4 -36.8,287.6 -23.4,278.6 79.1,437.9  "></polygon>
	
		<linearGradient id="XMLID_22_" gradientUnits="userSpaceOnUse" x1="-201.9618" y1="495.1481" x2="-63.7628" y2="495.1481" gradientTransform="matrix(1 0 0 -1 0 841.67)">
		<stop offset="0" style="stop-color:#F7931E"></stop>
		<stop offset="1" style="stop-color:#AAABAB"></stop>
	</linearGradient>
	<polygon id="XMLID_56_" class="st15" points="-190.4,415.6 -202.1,403.9 -75.3,277.4 -63.9,288.8  "></polygon>
	
		<linearGradient id="XMLID_23_" gradientUnits="userSpaceOnUse" x1="-12.048" y1="590.9958" x2="259.0815" y2="590.9958" gradientTransform="matrix(1 0 0 -1 0 841.67)">
		<stop offset="0" style="stop-color:#AAABAB"></stop>
		<stop offset="1" style="stop-color:#F6BF17"></stop>
	</linearGradient>
	<polygon id="XMLID_57_" class="st16" points="-11.6,264.9 -12,248.6 258.3,236.5 259.1,252.7  "></polygon>
	
		<linearGradient id="XMLID_26_" gradientUnits="userSpaceOnUse" x1="-242.2446" y1="645.7081" x2="-242.2446" y2="534.2572" gradientTransform="matrix(1 0 0 -1 0 841.67)">
		<stop offset="0" style="stop-color:#CD2027"></stop>
		<stop offset="1" style="stop-color:#F7931E"></stop>
	</linearGradient>
	<polygon id="XMLID_58_" class="st17" points="-234.5,384.4 -250.8,384.4 -249.9,198 -233.7,198  "></polygon>
	<circle id="XMLID_3_" class="st18" cx="-242.2" cy="457.4" r="77.8"></circle>
	<circle id="XMLID_31_" class="st1" cx="-44.1" cy="256.8" r="46.6"></circle>
	<circle id="XMLID_33_" class="st19" cx="-242.2" cy="181.8" r="31.6"></circle>
	<circle id="XMLID_32_" class="st20" cx="-29.9" cy="100.7" r="31.2"></circle>
	<circle id="XMLID_30_" class="st21" cx="288.3" cy="242.2" r="47"></circle>
	<circle id="XMLID_25_" class="st22" cx="257.9" cy="444.4" r="46.6"></circle>
	<circle id="XMLID_7_" class="st23" cx="285.4" cy="619.9" r="31.2"></circle>
	<circle id="XMLID_6_" class="st24" cx="98.6" cy="654.7" r="30.4"></circle>
	<circle id="XMLID_24_" class="st25" cx="79.5" cy="456.6" r="30.8"></circle>
	<circle id="XMLID_5_" class="st26" cx="-89.1" cy="724.4" r="47"></circle>
</g>
</svg>