<svg xmlns="http://www.w3.org/2000/svg" width="1224" height="721" viewBox="0 0 1224 721" fill="none"><path opacity="0.1" d="M496 115C497.657 115 499 113.657 499 112C499 110.343 497.657 109 496 109C494.343 109 493 110.343 493 112C493 113.657 494.343 115 496 115Z" fill="#62D9FF"></path><path opacity="0.3" d="M765 509C766.657 509 768 507.657 768 506C768 504.343 766.657 503 765 503C763.343 503 762 504.343 762 506C762 507.657 763.343 509 765 509Z" fill="#62D9FF"></path><path opacity="0.5" d="M502 463C503.657 463 505 461.657 505 460C505 458.343 503.657 457 502 457C500.343 457 499 458.343 499 460C499 461.657 500.343 463 502 463Z" fill="#62D9FF"></path><path opacity="0.8" d="M1163 712C1164.66 712 1166 710.657 1166 709C1166 707.343 1164.66 706 1163 706C1161.34 706 1160 707.343 1160 709C1160 710.657 1161.34 712 1163 712Z" fill="#62D9FF"></path><path opacity="0.5" d="M518 709C519.657 709 521 707.657 521 706C521 704.343 519.657 703 518 703C516.343 703 515 704.343 515 706C515 707.657 516.343 709 518 709Z" fill="#62D9FF"></path><path opacity="0.6" d="M863 255C864.657 255 866 253.657 866 252C866 250.343 864.657 249 863 249C861.343 249 860 250.343 860 252C860 253.657 861.343 255 863 255Z" fill="#62D9FF"></path><path d="M240 125C241.657 125 243 123.657 243 122C243 120.343 241.657 119 240 119C238.343 119 237 120.343 237 122C237 123.657 238.343 125 240 125Z" fill="#62D9FF"></path><path d="M1163 452C1164.66 452 1166 450.657 1166 449C1166 447.343 1164.66 446 1163 446C1161.34 446 1160 447.343 1160 449C1160 450.657 1161.34 452 1163 452Z" fill="#62D9FF"></path></svg>