<svg xmlns="http://www.w3.org/2000/svg" width="194" height="178" viewBox="0 0 194 178" fill="none"><path d="M121.8 0.5H71.8998C70.1998 0.5 68.8998 1.90001 68.8998 3.60001C67.8998 51.9 43.3998 97.8 1.29984 130.3C-0.000156641 131.3 -0.300155 133.3 0.599845 134.7L29.7998 176.3C30.7998 177.7 32.6998 178 34.0998 177C60.4998 156.8 81.6998 132.5 96.8998 105.5C112.2 132.5 133.4 156.8 159.7 177C161.1 178 163 177.7 164 176.3L193.2 134.7C194.2 133.3 193.9 131.4 192.5 130.3C150.3 97.8 125.9 52 124.9 3.60001C124.8 1.90001 123.4 0.5 121.8 0.5Z" fill="#FF875B"></path></svg>